<svg width="136" height="136" viewBox="0 0 136 136" fill="none" xmlns="http://www.w3.org/2000/svg">
<circle cx="68" cy="68" r="67.5" fill="#7BC1B7"/>
<path d="M111.043 60.3686C112.98 61.0538 113.992 63.1747 113.307 65.1111L113.315 65.1059L108.448 78.8882C107.546 81.4322 105.855 83.6244 103.625 85.1379L78.9771 101.865C77.6159 102.788 75.7699 102.435 74.8461 101.074L71.506 96.1519C70.5822 94.7907 70.9357 92.9447 72.2969 92.021L75.1269 90.1004L76.7011 84.9885C77.5022 82.4119 79.1542 80.1788 81.3921 78.66L93.566 70.3984C94.9272 69.4747 96.7732 69.8281 97.697 71.1893C98.6207 72.5505 98.2673 74.3965 96.9061 75.3203L90.7538 79.4954C90.077 79.9547 89.8991 80.8842 90.3584 81.5609C90.8176 82.2377 91.7471 82.4156 92.4239 81.9564L101.698 75.6623L106.301 62.6323C106.986 60.6959 109.107 59.6834 111.043 60.3686Z" fill="white"/>
<path d="M23.7475 60.3686C21.8111 61.0538 20.7986 63.1747 21.4838 65.1111L21.4761 65.1059L26.3428 78.8882C27.2447 81.4322 28.9358 83.6244 31.166 85.1379L55.8137 101.865C57.1749 102.788 59.0209 102.435 59.9447 101.074L63.2848 96.1519C64.2086 94.7907 63.8551 92.9447 62.4939 92.0209L59.6639 90.1004L58.0897 84.9885C57.2886 82.4118 55.6366 80.1787 53.3987 78.66L41.2248 70.3984C39.8636 69.4747 38.0176 69.8281 37.0938 71.1893C36.1701 72.5505 36.5235 74.3965 37.8847 75.3203L44.037 79.4954C44.7138 79.9547 44.8917 80.8842 44.4324 81.5609C43.9732 82.2377 43.0437 82.4156 42.3669 81.9564L33.0923 75.6623L28.49 62.6323C27.8048 60.6959 25.6839 59.6833 23.7475 60.3686Z" fill="white"/>
<path fill-rule="evenodd" clip-rule="evenodd" d="M86.9237 38.827C88.3037 40.2543 89.4072 41.9525 90.1726 43.8265C90.9662 45.7769 91.3716 47.8479 91.3659 49.9794C91.3659 51.9901 90.9777 54.0854 90.2068 56.2168C89.5673 57.9981 88.6367 59.8457 87.4547 61.7115C85.5819 64.6642 83.0068 67.7436 79.8093 70.8654C74.5049 76.0401 69.2633 79.6086 69.0407 79.7596L67.6874 80.6774C67.0879 81.0819 66.3171 81.0819 65.7176 80.6774L64.3643 79.7596C64.1417 79.6146 58.8944 76.0401 53.5957 70.8654C50.3982 67.7436 47.8231 64.6642 45.9503 61.7115C44.7683 59.8457 43.8434 57.9981 43.1981 56.2168C42.4273 54.0854 42.0391 51.9901 42.0391 49.9794C42.0391 47.8479 42.4445 45.7769 43.2381 43.8265C44.0014 41.9513 45.1052 40.2527 46.487 38.827C47.8745 37.3899 49.4903 36.2607 51.2832 35.4758C53.1389 34.6606 55.1031 34.25 57.13 34.25C59.945 34.25 62.6914 35.0652 65.0781 36.6049C65.649 36.9732 66.1915 37.3778 66.7053 37.8186C67.2192 37.3778 67.7617 36.9732 68.3326 36.6049C70.7193 35.0652 73.4657 34.25 76.2807 34.25C78.2871 34.2452 80.2745 34.6618 82.1275 35.4758C83.9144 36.2577 85.5427 37.3953 86.9237 38.827ZM66.1974 58.7881V64.7843H69.1734V58.7881H75.1696V55.8121H69.1734V49.8269H66.1974V55.8121H60.2123V58.7881H66.1974Z" fill="white"/>
</svg>
